<?xml version="1.0" encoding="UTF-8"?>
<svg version="1.1" xmlns="http://www.w3.org/2000/svg" width="1600" height="1600">
<path d="M0 0 C1.10794922 -0.02416992 1.10794922 -0.02416992 2.23828125 -0.04882812 C12.58572969 -0.05779472 21.36264236 4.13698408 30.44480801 8.71373844 C31.54711704 9.26123708 32.64942607 9.80873573 33.7851384 10.37282524 C36.83304114 11.88868397 39.87723758 13.41156898 42.92005318 14.93758808 C46.23552447 16.59814952 49.55560689 18.24944611 52.87509543 19.90195793 C58.68880177 22.79775075 64.49951087 25.69948628 70.30828094 28.60516739 C78.94635411 32.92612714 87.58895032 37.23797967 96.23241107 41.54815004 C112.56828528 49.69470251 128.89863653 57.85228319 145.22714608 66.01358486 C147.02701088 66.91318964 148.82687687 67.81279205 150.62674403 68.71239209 C151.52039874 69.15905386 152.41405345 69.60571563 153.3347886 70.0659126 C163.24201157 75.01747058 173.15066365 79.96616631 183.05938911 84.91471672 C212.98965729 99.86262947 242.9187666 114.81285499 272.84250546 129.77383518 C273.79936134 130.25223167 274.75621723 130.73062816 275.74206875 131.22352152 C280.59176458 133.64821587 285.44144929 136.07293246 290.29113298 138.49765111 C292.23762706 139.47084619 294.18412114 140.44404127 296.13061523 141.41723633 C297.09500609 141.89940911 298.05939694 142.38158189 299.05301176 142.87836597 C329.35853682 158.0302884 359.67111452 173.16801941 389.98901367 188.29516602 C424.05404189 205.29195329 458.11293634 222.30095035 492.16337496 239.32694858 C495.79449309 241.14253387 499.42563558 242.95807046 503.05679512 244.77357292 C503.95086997 245.22059995 504.84494483 245.66762697 505.76611286 246.12820027 C520.15079909 253.32001435 534.54127601 260.50016606 548.93381839 267.67624263 C563.39918492 274.88902388 577.8577834 282.1152279 592.30964153 289.35503817 C600.89336271 293.6546672 609.48191706 297.94427857 618.07778367 302.21957648 C623.82308715 305.07834468 629.56171666 307.95020943 635.29516038 310.8326887 C638.5594562 312.47334798 641.82626656 314.1083005 645.10134625 315.72734124 C664.14405569 325.1481807 679.35653112 333.46029406 687.125 354.3125 C688.01642626 357.98580535 688.25073925 361.39185411 688.2526505 365.16702574 C688.25566647 366.34823523 688.25868244 367.52944472 688.2617898 368.74644843 C688.26002033 370.04280946 688.25825086 371.33917048 688.25642776 372.67481518 C688.25807767 374.07265709 688.26016407 375.47049854 688.26264787 376.86833921 C688.26822079 380.72626221 688.26754096 384.58416305 688.26587028 388.44208879 C688.26514013 392.63297879 688.27015988 396.8238625 688.2744453 401.01474983 C688.2820321 409.33434885 688.2842187 417.65394146 688.28477435 425.97354359 C688.28568731 435.93561803 688.29235282 445.89768653 688.29912117 455.85975842 C688.31519007 479.93877123 688.32108532 504.01778341 688.32586992 528.09680061 C688.32820483 539.48430301 688.33180735 550.8718049 688.3355653 562.2593069 C688.34840117 601.22850517 688.35912067 640.19770316 688.3625679 679.1669035 C688.36278954 681.6136861 688.36301132 684.06046871 688.36323325 686.50725131 C688.36345389 688.95999107 688.36367438 691.41273083 688.3638947 693.86547059 C688.36433726 698.78620891 688.36478437 703.70694723 688.36523438 708.62768555 C688.36534377 709.84774485 688.36545316 711.06780415 688.36556586 712.32483494 C688.36919747 751.89601046 688.38512124 791.46716767 688.40842474 831.03833617 C688.43300912 872.86089492 688.44674008 914.68344321 688.44793582 956.5060094 C688.44810728 961.0951858 688.44832271 965.68436219 688.44857025 970.27353859 C688.44862602 971.40354895 688.44868179 972.53355931 688.44873925 973.69781241 C688.44989086 991.89891425 688.4609222 1010.09999733 688.47545731 1028.30109283 C688.4898087 1046.58804904 688.49306696 1064.87498114 688.48501733 1083.16194143 C688.48055477 1094.03108747 688.48444671 1104.90015583 688.50025584 1115.76929169 C688.50998673 1123.02694448 688.50884569 1130.28454268 688.49881961 1137.54219493 C688.49341394 1141.67918895 688.49276122 1145.8160335 688.50532833 1149.95301529 C688.51667169 1153.71852965 688.51413815 1157.48377301 688.50066125 1161.24927801 C688.4970869 1163.23748375 688.50819797 1165.22569946 688.51995254 1167.21387365 C688.43204857 1182.20841059 683.62926273 1192.63167701 673.89453125 1203.85546875 C666.94419197 1210.02156664 658.12312801 1213.95897681 649.85928154 1218.07399368 C648.76282722 1218.62397388 647.66637289 1219.17395408 646.53669268 1219.74060035 C643.5095852 1221.25798779 640.48074582 1222.77181351 637.45109957 1224.28411913 C634.1491722 1225.9334415 630.84956772 1227.58739961 627.54965603 1229.24075007 C621.77136894 1232.13503562 615.99160292 1235.02634992 610.21084595 1237.91569901 C601.61474484 1242.21222256 593.02092776 1246.51329941 584.42753193 1250.81523064 C568.18772674 1258.94479706 551.94518605 1267.06888742 535.70174299 1275.19118217 C523.16142654 1281.46180004 510.62175057 1287.73369691 498.08252335 1294.00649261 C494.47243613 1295.81243376 490.86234583 1297.61836873 487.25225461 1299.42430186 C486.35478008 1299.87326017 485.45730555 1300.32221849 484.53263482 1300.7847816 C459.29515133 1313.4096759 434.05678635 1326.03280654 408.81666374 1338.65242386 C407.86536364 1339.12805833 406.91406354 1339.6036928 405.93393616 1340.09374044 C401.11237512 1342.50443786 396.29080769 1344.91512253 391.46923886 1347.32580438 C390.03286861 1348.04395959 390.03286861 1348.04395959 388.56748078 1348.77662298 C386.63102382 1349.74481102 384.69456632 1350.71299798 382.75810828 1351.68118384 C352.61097537 1366.75413716 322.46710081 1381.83358919 292.32568359 1396.91796875 C258.46293361 1413.86469622 224.59749308 1430.8060308 190.72822773 1447.73973346 C187.11875759 1449.5443939 183.50929781 1451.34907508 179.89984512 1453.15377045 C179.0111006 1453.59813105 178.12235608 1454.04249166 177.20667991 1454.50031774 C162.89294754 1461.65715313 148.58179002 1468.81912263 134.27151488 1475.98286783 C119.89885281 1483.17766543 105.52321631 1490.36649131 91.1445335 1497.5492492 C82.59862956 1501.81849942 74.05497693 1506.0921829 65.51447139 1510.3722226 C59.81257056 1513.22915589 54.10779299 1516.08028524 48.40062238 1518.9266766 C45.14710477 1520.54953969 41.89491102 1522.17491589 38.64618491 1523.80735269 C35.14809659 1525.5650143 31.6439159 1527.31028751 28.13903618 1529.05437088 C27.1297123 1529.564001 26.12038842 1530.07363112 25.08047897 1530.59870458 C16.80624975 1534.69393558 9.49290778 1536.66490893 0.25 1536.625 C-0.48863281 1536.64111328 -1.22726562 1536.65722656 -1.98828125 1536.67382812 C-12.33572969 1536.68279472 -21.11264236 1532.48801592 -30.19480801 1527.91126156 C-31.29711704 1527.36376292 -32.39942607 1526.81626427 -33.5351384 1526.25217476 C-36.58304114 1524.73631603 -39.62723758 1523.21343102 -42.67005318 1521.68741192 C-45.98552447 1520.02685048 -49.30560689 1518.37555389 -52.62509543 1516.72304207 C-58.43880177 1513.82724925 -64.24951087 1510.92551372 -70.05828094 1508.01983261 C-78.69635411 1503.69887286 -87.33895032 1499.38702033 -95.98241107 1495.07684996 C-112.31828528 1486.93029749 -128.64863653 1478.77271681 -144.97714608 1470.61141514 C-146.77701088 1469.71181036 -148.57687687 1468.81220795 -150.37674403 1467.91260791 C-151.27039874 1467.46594614 -152.16405345 1467.01928437 -153.0847886 1466.5590874 C-162.99201157 1461.60752942 -172.90066365 1456.65883369 -182.80938911 1451.71028328 C-212.73965729 1436.76237053 -242.6687666 1421.81214501 -272.59250546 1406.85116482 C-273.54936134 1406.37276833 -274.50621723 1405.89437184 -275.49206875 1405.40147848 C-280.34176458 1402.97678413 -285.19144929 1400.55206754 -290.04113298 1398.12734889 C-291.98762706 1397.15415381 -293.93412114 1396.18095873 -295.88061523 1395.20776367 C-296.84500609 1394.72559089 -297.80939694 1394.24341811 -298.80301176 1393.74663403 C-329.10853682 1378.5947116 -359.42111452 1363.45698059 -389.73901367 1348.32983398 C-423.80404189 1331.33304671 -457.86293634 1314.32404965 -491.91337496 1297.29805142 C-495.54449309 1295.48246613 -499.17563558 1293.66692954 -502.80679512 1291.85142708 C-503.70086997 1291.40440005 -504.59494483 1290.95737303 -505.51611286 1290.49679973 C-519.90079909 1283.30498565 -534.29127601 1276.12483394 -548.68381839 1268.94875737 C-563.14918492 1261.73597612 -577.6077834 1254.5097721 -592.05964153 1247.26996183 C-600.64336271 1242.9703328 -609.23191706 1238.68072143 -617.82778367 1234.40542352 C-623.57308715 1231.54665532 -629.31171666 1228.67479057 -635.04516038 1225.7923113 C-638.3094562 1224.15165202 -641.57626656 1222.5166995 -644.85134625 1220.89765876 C-663.89405569 1211.4768193 -679.10653112 1203.16470594 -686.875 1182.3125 C-687.76642626 1178.63919465 -688.00073925 1175.23314589 -688.0026505 1171.45797426 C-688.00566647 1170.27676477 -688.00868244 1169.09555528 -688.0117898 1167.87855157 C-688.01002033 1166.58219054 -688.00825086 1165.28582952 -688.00642776 1163.95018482 C-688.00807767 1162.55234291 -688.01016407 1161.15450146 -688.01264787 1159.75666079 C-688.01822079 1155.89873779 -688.01754096 1152.04083695 -688.01587028 1148.18291121 C-688.01514013 1143.99202121 -688.02015988 1139.8011375 -688.0244453 1135.61025017 C-688.0320321 1127.29065115 -688.0342187 1118.97105854 -688.03477435 1110.65145641 C-688.03568731 1100.68938197 -688.04235282 1090.72731347 -688.04912117 1080.76524158 C-688.06519007 1056.68622877 -688.07108532 1032.60721659 -688.07586992 1008.52819939 C-688.07820483 997.14069699 -688.08180735 985.7531951 -688.0855653 974.3656931 C-688.09840117 935.39649483 -688.10912067 896.42729684 -688.1125679 857.4580965 C-688.11278954 855.0113139 -688.11301132 852.56453129 -688.11323325 850.11774869 C-688.11345389 847.66500893 -688.11367438 845.21226917 -688.1138947 842.75952941 C-688.11433726 837.83879109 -688.11478437 832.91805277 -688.11523438 827.99731445 C-688.11534377 826.77725515 -688.11545316 825.55719585 -688.11556586 824.30016506 C-688.11919747 784.72898954 -688.13512124 745.15783233 -688.15842474 705.58666383 C-688.18300912 663.76410508 -688.19674008 621.94155679 -688.19793582 580.1189906 C-688.19810728 575.5298142 -688.19832271 570.94063781 -688.19857025 566.35146141 C-688.19862602 565.22145105 -688.19868179 564.09144069 -688.19873925 562.92718759 C-688.19989086 544.72608575 -688.2109222 526.52500267 -688.22545731 508.32390717 C-688.2398087 490.03695096 -688.24306696 471.75001886 -688.23501733 453.46305857 C-688.23055477 442.59391253 -688.23444671 431.72484417 -688.25025584 420.85570831 C-688.25998673 413.59805552 -688.25884569 406.34045732 -688.24881961 399.08280507 C-688.24341394 394.94581105 -688.24276122 390.8089665 -688.25532833 386.67198471 C-688.26667169 382.90647035 -688.26413815 379.14122699 -688.25066125 375.37572199 C-688.2470869 373.38751625 -688.25819797 371.39930054 -688.26995254 369.41112635 C-688.18204857 354.41658941 -683.37926273 343.99332299 -673.64453125 332.76953125 C-666.69419197 326.60343336 -657.87312801 322.66602319 -649.60928154 318.55100632 C-648.51282722 318.00102612 -647.41637289 317.45104592 -646.28669268 316.88439965 C-643.2595852 315.36701221 -640.23074582 313.85318649 -637.20109957 312.34088087 C-633.8991722 310.6915585 -630.59956772 309.03760039 -627.29965603 307.38424993 C-621.52136894 304.48996438 -615.74160292 301.59865008 -609.96084595 298.70930099 C-601.36474484 294.41277744 -592.77092776 290.11170059 -584.17753193 285.80976936 C-567.93772674 277.68020294 -551.69518605 269.55611258 -535.45174299 261.43381783 C-522.91142654 255.16319996 -510.37175057 248.89130309 -497.83252335 242.61850739 C-494.22243613 240.81256624 -490.61234583 239.00663127 -487.00225461 237.20069814 C-485.65604281 236.52726067 -485.65604281 236.52726067 -484.28263482 235.8402184 C-459.04515133 223.2153241 -433.80678635 210.59219346 -408.56666374 197.97257614 C-407.61536364 197.49694167 -406.66406354 197.0213072 -405.68393616 196.53125956 C-400.86237512 194.12056214 -396.04080769 191.70987747 -391.21923886 189.29919562 C-390.26165869 188.82042548 -389.30407853 188.34165534 -388.31748078 187.84837702 C-386.38102382 186.88018898 -384.44456632 185.91200202 -382.50810828 184.94381616 C-352.36097537 169.87086284 -322.21710081 154.79141081 -292.07568359 139.70703125 C-258.21293361 122.76030378 -224.34749308 105.8189692 -190.47822773 88.88526654 C-186.86875759 87.0806061 -183.25929781 85.27592492 -179.64984512 83.47122955 C-178.7611006 83.02686895 -177.87235608 82.58250834 -176.95667991 82.12468226 C-162.64294754 74.96784687 -148.33179002 67.80587737 -134.02151488 60.64213217 C-119.64885281 53.44733457 -105.27321631 46.25850869 -90.8945335 39.0757508 C-82.34862956 34.80650058 -73.80497693 30.5328171 -65.26447139 26.2527774 C-59.56257056 23.39584411 -53.85779299 20.54471476 -48.15062238 17.6983234 C-44.89710477 16.07546031 -41.64491102 14.45008411 -38.39618491 12.81764731 C-34.89809659 11.0599857 -31.3939159 9.31471249 -27.88903618 7.57062912 C-26.37505036 6.80618394 -26.37505036 6.80618394 -24.83047897 6.02629542 C-16.55624975 1.93106442 -9.24290778 -0.03990893 0 0 Z M-4.90534359 104.20289797 C-5.7552981 104.62549982 -6.60525261 105.04810166 -7.48096332 105.48350963 C-8.42198725 105.95650569 -9.36301119 106.42950175 -10.332551 106.91683102 C-11.33069957 107.41460166 -12.32884813 107.9123723 -13.35724363 108.4252269 C-16.74256789 110.11471014 -20.12498024 111.80994462 -23.50746155 113.50511169 C-25.94171505 114.72200055 -28.37657015 115.93768366 -30.81139845 117.15342194 C-36.12606928 119.8079065 -41.43923596 122.46538233 -46.75144577 125.12478828 C-54.65065218 129.07928665 -62.55213123 133.02922717 -70.4540848 136.97823265 C-83.74485078 143.62047278 -97.03371794 150.26650348 -110.32148933 156.91473198 C-123.4845615 163.50056927 -136.64836927 170.08493217 -149.8132 176.66725349 C-150.63086199 177.07608067 -151.44852399 177.48490784 -152.29096362 177.90612372 C-155.60978312 179.56551302 -158.92860756 181.22489244 -162.24743874 182.88425838 C-193.40564652 198.46290883 -224.56167946 214.04590412 -255.71662942 229.63106855 C-283.42105033 243.49009161 -311.12694769 257.34615833 -338.83422852 271.19946289 C-340.61325533 272.08895609 -342.39228214 272.97844932 -344.17130894 273.86794256 C-345.05080869 274.30768226 -345.93030843 274.74742196 -346.83645969 275.2004871 C-351.2633587 277.41388622 -355.69025568 279.62728941 -360.11715031 281.84069729 C-360.99042986 282.27732871 -361.86370941 282.71396013 -362.76345198 283.1638228 C-385.88733575 294.72558226 -409.01023941 306.28930152 -432.13280863 317.85368973 C-432.95490521 318.26484816 -433.7770018 318.67600659 -434.6240104 319.09962436 C-437.93015167 320.75313913 -441.23629292 322.40665395 -444.54242898 324.06017913 C-456.06400468 329.82254926 -467.58591209 335.58425561 -479.10803244 341.3455366 C-493.95309899 348.76836792 -508.79748879 356.19254992 -523.64070184 363.61908703 C-531.49833005 367.55046594 -539.35650452 371.48074814 -547.21546205 375.40946905 C-552.45544166 378.02909328 -557.69469825 380.65015946 -562.93335126 383.27243556 C-565.92444093 384.76961469 -568.91595614 386.2659265 -571.90812767 387.76094346 C-575.12076788 389.36624233 -578.33218892 390.97395331 -581.54329014 392.58232784 C-582.48665524 393.05298273 -583.43002034 393.52363763 -584.40197226 394.00855479 C-585.67314875 394.64621284 -585.67314875 394.64621284 -586.97000557 395.29675287 C-587.70563066 395.66471116 -588.44125574 396.03266946 -589.1991725 396.411778 C-590.85839641 397.19987051 -590.85839641 397.19987051 -591.875 398.3125 C-591.9725418 399.93312855 -591.99947279 401.55803888 -591.9991985 403.18160015 C-592.00144579 404.24457618 -592.00369308 405.3075522 -592.00600848 406.40273961 C-592.00338146 407.58732823 -592.00075445 408.77191684 -591.99804783 409.99240208 C-591.99920167 411.24295245 -592.00035552 412.49350282 -592.00154433 413.78194866 C-592.00463345 417.28456921 -592.0014217 420.78716105 -591.99726619 424.28977947 C-591.99384902 428.08840789 -591.99619952 431.88703322 -591.99784368 435.68566221 C-591.99992342 442.3536149 -591.99826346 449.02155869 -591.99420547 455.68951035 C-591.98818802 465.6046211 -591.98786803 475.51972621 -591.98874746 485.43483846 C-591.99006361 502.110965 -591.98671144 518.78708758 -591.98073006 535.46321297 C-591.97481995 551.98282961 -591.97096551 568.50244461 -591.96987724 585.0220623 C-591.9698085 586.04789018 -591.96973976 587.07371806 -591.96966894 588.13063163 C-591.96933062 593.3399559 -591.96902923 598.54928018 -591.96874207 603.75860446 C-591.96663974 640.68908704 -591.95989706 677.61956746 -591.95043945 714.55004883 C-591.94126015 750.43513986 -591.93417402 786.3202303 -591.92993164 822.20532227 C-591.92980011 823.31079211 -591.92966859 824.41626196 -591.92953308 825.5552309 C-591.9282146 836.65646722 -591.92693878 847.75770354 -591.92569422 858.85893987 C-591.92315777 881.47492458 -591.92033652 904.09090926 -591.91734314 926.70689392 C-591.91720585 927.74681843 -591.91706856 928.78674295 -591.91692711 929.85818032 C-591.90772113 999.34295444 -591.89187532 1068.82772737 -591.875 1138.3125 C-577.65656291 1145.87685039 -563.31483152 1153.17370432 -548.91520691 1160.38616943 C-546.54362335 1161.57576742 -544.17211262 1162.76550964 -541.8006838 1163.95541596 C-536.00924192 1166.86093134 -530.21676538 1169.76437818 -524.42393319 1172.66712048 C-519.60692531 1175.08095566 -514.79036951 1177.49569092 -509.97408867 1179.91097641 C-509.27525072 1180.2614305 -508.57641278 1180.61188459 -507.85639792 1180.9729585 C-506.43068401 1181.68792836 -505.00497016 1182.40289833 -503.57925636 1183.1178684 C-452.54281444 1208.7110366 -401.4910566 1234.27369468 -350.43637957 1259.83046326 C-342.75302407 1263.67658147 -335.06973673 1267.52283586 -327.38647461 1271.36914062 C-326.53758398 1271.79409829 -325.68869336 1272.21905596 -324.81407877 1272.65689113 C-297.23400623 1286.46369609 -269.6609835 1300.28450963 -242.09172358 1314.11289085 C-213.72317352 1328.34210358 -185.34816076 1342.55834152 -156.96469235 1356.75777478 C-152.96057964 1358.76092172 -148.95653852 1360.76421169 -144.95253944 1362.76758575 C-143.7705784 1363.35896207 -143.7705784 1363.35896207 -142.56473935 1363.96228539 C-129.8721322 1370.31330366 -117.18639413 1376.67792656 -104.50312871 1383.04757642 C-91.77479586 1389.43947772 -79.03925024 1395.81681008 -66.29613694 1402.17919502 C-58.72121968 1405.96175087 -51.15211474 1409.75542744 -43.59076573 1413.56503645 C-37.95513659 1416.40288895 -32.30934834 1419.21992263 -26.65921668 1422.02877977 C-24.36748877 1423.17217015 -22.07917081 1424.32242444 -19.79456212 1425.47997424 C-16.70299084 1427.04516828 -13.60027039 1428.58551849 -10.49335003 1430.11996078 C-9.59685762 1430.58119913 -8.70036521 1431.04243748 -7.77670637 1431.51765275 C-3.04394979 1433.86689319 -3.04394979 1433.86689319 2.10819232 1433.8757332 C3.10373886 1433.35986624 4.09928539 1432.84399929 5.125 1432.3125 C5.81888564 1431.9850208 6.51277127 1431.6575416 7.22768375 1431.32013879 C9.84350794 1430.08397213 12.42730604 1428.79274017 15.01227283 1427.49330807 C16.00828328 1426.99660649 17.00429373 1426.4999049 18.03048632 1425.98815176 C21.38444357 1424.31433398 24.73550706 1422.63480295 28.08662415 1420.95530701 C30.50783083 1419.74494195 32.92963929 1418.53578303 35.3514201 1417.32656723 C40.62518765 1414.69252719 45.89745953 1412.05551305 51.16876602 1409.41655159 C59.00708585 1405.49248597 66.84768782 1401.57299725 74.68875795 1397.65443078 C87.87867688 1391.06261037 101.06670176 1384.46700899 114.25362587 1377.86919975 C127.31291162 1371.33525263 140.37293543 1364.80278482 153.43398094 1358.27235603 C154.24582259 1357.86643903 155.05766424 1357.46052203 155.89410716 1357.04230451 C159.1894136 1355.39467174 162.48472498 1353.74704886 165.7800431 1352.09943944 C196.70112441 1336.63935197 227.62003247 1321.17492293 258.53785463 1305.70831885 C286.02810319 1291.95637965 313.51983009 1278.20740059 341.01293945 1264.46118164 C342.77883609 1263.57825353 344.54473272 1262.69532539 346.31062935 1261.81239723 C347.18364153 1261.37590131 348.05665372 1260.9394054 348.95612083 1260.48968233 C353.3504176 1258.29258434 357.74471232 1256.09548227 362.13900471 1253.89837551 C363.00586564 1253.4649534 363.87272657 1253.03153129 364.76585601 1252.58497518 C387.71854282 1241.10881419 410.6702496 1229.63069356 433.62162179 1218.15190369 C434.43757982 1217.74381454 435.25353785 1217.33572538 436.09422189 1216.91526989 C439.3756063 1215.27413356 442.65699068 1213.63299718 445.93836987 1211.99185042 C457.3720053 1206.27345062 468.80597229 1200.55571431 480.24015227 1194.83840348 C494.96897011 1187.47369654 509.69711126 1180.10763912 524.42407546 1172.73922615 C532.21951421 1168.83894204 540.01549915 1164.93975453 547.81226719 1161.04212838 C553.01065125 1158.44330193 558.20831227 1155.84303354 563.40536973 1153.24155521 C566.37263077 1151.75629042 569.34031954 1150.27189178 572.30866209 1148.78878932 C575.49567177 1147.19630574 578.68146219 1145.60141005 581.86693287 1144.00585079 C583.27063936 1143.30553903 583.27063936 1143.30553903 584.70270357 1142.59107956 C585.9637422 1141.95849044 585.9637422 1141.95849044 587.25025636 1141.31312174 C588.34486448 1140.76559905 588.34486448 1140.76559905 589.4615859 1140.2070153 C591.11000709 1139.42344956 591.11000709 1139.42344956 592.125 1138.3125 C592.2225418 1136.69187145 592.24947279 1135.06696112 592.2491985 1133.44339985 C592.25256944 1131.84893581 592.25256944 1131.84893581 592.25600848 1130.22226039 C592.25338146 1129.03767177 592.25075445 1127.85308316 592.24804783 1126.63259792 C592.24920167 1125.38204755 592.25035552 1124.13149718 592.25154433 1122.84305134 C592.25463345 1119.34043079 592.2514217 1115.83783895 592.24726619 1112.33522053 C592.24384902 1108.53659211 592.24619952 1104.73796678 592.24784368 1100.93933779 C592.24992342 1094.2713851 592.24826346 1087.60344131 592.24420547 1080.93548965 C592.23818802 1071.0203789 592.23786803 1061.10527379 592.23874746 1051.19016154 C592.24006361 1034.514035 592.23671144 1017.83791242 592.23073006 1001.16178703 C592.22481995 984.64217039 592.22096551 968.12255539 592.21987724 951.6029377 C592.2198085 950.57710982 592.21973976 949.55128194 592.21966894 948.49436837 C592.21933062 943.2850441 592.21902923 938.07571982 592.21874207 932.86639554 C592.21663974 895.93591296 592.20989706 859.00543254 592.20043945 822.07495117 C592.19126015 786.18986014 592.18417402 750.3047697 592.17993164 714.41967773 C592.17980011 713.31420789 592.17966859 712.20873804 592.17953308 711.0697691 C592.1782146 699.96853278 592.17693878 688.86729646 592.17569422 677.76606013 C592.17315777 655.15007542 592.17033652 632.53409074 592.16734314 609.91810608 C592.1671372 608.35821931 592.1671372 608.35821931 592.16692711 606.76681968 C592.15772113 537.28204556 592.14187532 467.79727263 592.125 398.3125 C577.90253545 390.74181455 563.5509531 383.45317746 549.13829041 376.25228882 C546.76384842 375.06413181 544.38948515 373.87581865 542.01521498 372.68731844 C536.8868875 370.1206 531.75783358 367.55533822 526.62827682 364.99107742 C519.00093786 361.17817566 511.37474662 357.36298255 503.74875808 353.54738074 C489.33840648 346.33738961 474.9266997 339.1301103 460.51453643 331.92374139 C449.39343675 326.36296131 438.27265782 320.80154028 427.15210152 315.23967361 C423.9453385 313.63584332 420.73857394 312.03201613 417.53180891 310.42818987 C416.73454202 310.0294459 415.93727513 309.63070193 415.11584863 309.21987481 C392.72098818 298.01937168 370.32568975 286.8197447 347.92951107 275.62187767 C347.08661974 275.20043979 346.24372841 274.77900192 345.37529492 274.3447932 C341.10355273 272.20896365 336.83180735 270.07314049 332.56006127 267.93731873 C331.28755931 267.30108271 331.28755931 267.30108271 329.98935025 266.65199344 C328.27382285 265.79424996 326.55829519 264.93650702 324.84276725 264.07876463 C298.09933079 250.70735338 271.35752581 237.33268423 244.61694336 223.95556641 C214.55525843 208.9170526 184.49223126 193.88122658 154.42729098 178.84922183 C151.22586617 177.24854674 148.02444655 175.64786128 144.82303047 174.04716873 C144.03478675 173.6530527 143.24654303 173.25893666 142.43441313 172.85287772 C129.73053752 166.50095532 117.02794874 160.14646365 104.32580058 153.79108765 C91.58274143 147.41533123 78.83820022 141.04254537 66.09213143 134.67280774 C58.51267196 130.88493253 50.93433936 127.09482313 43.35757556 123.30155863 C37.71524477 120.47706299 32.0708552 117.65670602 26.4256211 114.83801802 C24.13138971 113.69167757 21.8378454 112.54396089 19.54502939 111.39479212 C16.44888866 109.84323819 13.35037067 108.29654259 10.25115871 106.75113487 C9.34415825 106.29515055 8.43715779 105.83916623 7.50267246 105.3693642 C6.68313152 104.96196913 5.86359057 104.55457407 5.01921505 104.13483369 C4.31001073 103.78018742 3.60080641 103.42554115 2.87011104 103.06014802 C-0.31354899 101.69619062 -1.95122095 102.72565952 -4.90534359 104.20289797 Z " fill="#FF6B00" transform="translate(799.875,31.6875)"/>
<path d="M0 0 C1.16692383 -0.0309375 1.16692383 -0.0309375 2.35742188 -0.0625 C11.3872081 -0.12274878 17.98674457 3.23431 25.3125 8.25 C26.17875 8.8275 27.045 9.405 27.9375 10 C34.65624295 16.3651249 40.03655276 25.88494879 40.515625 35.19921875 C40.53687797 36.77858013 40.55228515 38.35802866 40.5625 39.9375 C40.5934375 41.10442383 40.5934375 41.10442383 40.625 42.29492188 C40.73149579 58.25597805 29.42840485 69.08064425 18.89871559 79.78055809 C16.05237162 82.65316852 13.19280212 85.51243488 10.33215332 88.37078857 C9.03128152 89.67424911 7.73062283 90.97792236 6.43015718 92.28178811 C2.87861015 95.8413477 -0.67601621 99.39781783 -4.23120093 102.9537437 C-8.07350191 106.79790513 -11.91295461 110.64490971 -15.75282288 114.49150085 C-24.13622215 122.88843947 -32.52335949 131.28163762 -40.91132545 139.67401409 C-46.15084419 144.91630071 -51.38962734 150.15932201 -56.62828064 155.40247345 C-71.14143202 169.92780796 -85.65552277 184.45220237 -100.17307281 198.97314072 C-101.56464891 200.36504616 -101.56464891 200.36504616 -102.98433766 201.78507091 C-103.91421424 202.71516577 -104.84409082 203.64526063 -105.80214548 204.60354018 C-107.68629515 206.48813331 -109.57044345 208.37272781 -111.45458984 210.25732422 C-111.92174248 210.72458625 -112.38889512 211.19184828 -112.8702039 211.67326977 C-128.03055021 226.83724979 -143.18473275 242.00736971 -158.33524745 257.18117219 C-174.37156731 273.24209616 -190.41332976 289.2975639 -206.46135569 305.34679151 C-215.20268915 314.08904153 -223.94159107 322.8336918 -232.67430115 331.58455658 C-240.10558269 339.0312335 -247.54197689 346.47275676 -254.98509061 353.90760794 C-258.7813792 357.69998912 -262.57520505 361.49475045 -266.36252022 365.29609489 C-269.83128614 368.77759254 -273.30693763 372.25205989 -276.78813845 375.72112241 C-278.04434296 376.9753688 -279.29803109 378.23214178 -280.54889053 379.49171886 C-291.91204928 390.92902448 -302.5182409 400.39098296 -319.375 400.5 C-320.54192383 400.5309375 -320.54192383 400.5309375 -321.73242188 400.5625 C-337.98889453 400.67096687 -349.00129616 388.89570837 -359.8558774 378.20471954 C-363.23185552 374.8599183 -366.59442821 371.50179284 -369.95605469 368.14257812 C-371.47468009 366.62858981 -372.99349958 365.11479615 -374.51249695 363.60118103 C-378.6117983 359.51491122 -382.70783881 355.42538873 -386.80285931 351.33482933 C-389.3650783 348.77555325 -391.92787815 346.21686021 -394.49085236 343.65834045 C-402.52138028 335.64145681 -410.54992567 327.62259569 -418.57557082 319.60082388 C-427.82021325 310.3606689 -437.07137145 301.1271034 -446.32821918 291.89917612 C-453.50064231 284.74838113 -460.667279 277.59182043 -467.82956433 270.43087149 C-472.10057864 266.16090345 -476.37397071 261.89338274 -480.65340424 257.6318512 C-484.67541699 253.62634084 -488.69017921 249.61370172 -492.69956398 245.59555244 C-494.16830375 244.12604375 -495.63959235 242.65907727 -497.11366081 241.19491386 C-509.12267964 229.26185038 -519.82189957 218.43721663 -519.9375 200.5625 C-519.958125 199.78455078 -519.97875 199.00660156 -520 198.20507812 C-520.06024878 189.1752919 -516.70319 182.57575543 -511.6875 175.25 C-511.11 174.38375 -510.5325 173.5175 -509.9375 172.625 C-503.5723751 165.90625705 -494.05255121 160.52594724 -484.73828125 160.046875 C-483.15891987 160.02562203 -481.57947134 160.01021485 -480 160 C-478.83307617 159.9690625 -478.83307617 159.9690625 -477.64257812 159.9375 C-461.75767187 159.8315123 -450.95754726 171.02549301 -440.30856013 181.51993382 C-437.58624679 184.22224758 -434.877314 186.93777736 -432.16943359 189.65454102 C-430.94651435 190.87774298 -429.72337358 192.1007235 -428.50003052 193.32350159 C-425.20922961 196.61401785 -421.92150158 199.90758843 -418.63435316 203.2017529 C-415.18753724 206.65485813 -411.73785261 210.10509517 -408.28848267 213.5556488 C-401.77026592 220.07696252 -395.25460051 226.60081911 -388.73986781 233.12561315 C-381.31734224 240.55935084 -373.89194654 247.99021881 -366.46631885 255.42085755 C-351.20353661 270.69406713 -335.94432827 285.97084299 -320.6875 301.25 C-316.9357057 299.68687633 -314.56108183 297.36911014 -311.70702839 294.50724411 C-310.97223988 293.77456895 -310.97223988 293.77456895 -310.22260717 293.02709228 C-308.57543772 291.38221663 -306.93554239 289.73027431 -305.29548645 288.07830811 C-304.10681317 286.88835914 -302.91769535 285.6988541 -301.72817057 284.50975633 C-298.45503359 281.23526675 -295.1881685 277.95458098 -291.92224491 274.67289901 C-288.40088456 271.13675846 -284.87372578 267.60641051 -281.34719849 264.07542419 C-275.23441094 257.95344275 -269.12513352 251.82797654 -263.01804543 245.70030975 C-254.17988552 236.83264252 -245.33479948 227.97190934 -236.48770484 219.11315706 C-222.12383574 204.73026323 -207.76333741 190.34400954 -193.40600586 175.95458984 C-192.54634099 175.09300704 -191.68667612 174.23142424 -190.8009608 173.34373286 C-181.21370987 163.73494354 -171.62727424 154.12534143 -162.04174805 144.51483154 C-158.56812443 141.0321767 -155.09449349 137.54952916 -151.62084961 134.06689453 C-150.76374741 133.20757068 -149.90664521 132.34824682 -149.02357022 131.46288285 C-134.72850487 117.13108704 -120.42761068 102.80512301 -106.12213916 88.48371434 C-97.29814059 79.64938363 -88.47921368 70.81004859 -79.66675182 61.96420941 C-73.6254658 55.9007755 -67.57880176 49.84274013 -61.52788994 43.78891221 C-58.03739634 40.29637117 -54.54941929 36.80140918 -51.06801033 33.29981041 C-47.87846576 30.09185643 -44.68201821 26.89095034 -41.48003515 23.69541302 C-40.32527785 22.54053593 -39.17304848 21.38312421 -38.02367792 20.22288594 C-26.94777295 9.04752784 -16.40347183 0.10608551 0 0 Z " fill="#FF6B00" transform="translate(1039.6875,599.75)"/>
</svg>
