<?xml version="1.0" encoding="UTF-8"?>
<svg version="1.1" xmlns="http://www.w3.org/2000/svg" width="1600" height="1600">
<path d="M0 0 C1.9533193 0.96716936 3.9022418 1.943248 5.84769309 2.92614788 C6.92881528 3.46440148 8.00993747 4.00265509 9.12382094 4.55721941 C12.12998517 6.05591335 15.13239196 7.56171466 18.13344665 9.07058882 C21.38936251 10.70540422 24.64990657 12.33094088 27.90988219 13.95764107 C33.63076396 16.8139222 39.34863294 19.67616236 45.06459939 22.54226643 C53.67449401 26.85940597 62.28902996 31.16722243 70.90447452 35.4732734 C85.34154625 42.68932356 99.77497416 49.91263226 114.20620787 57.14034981 C133.71923663 66.91319714 153.2372298 76.67606587 172.75610411 86.43724006 C219.69234875 109.91587162 266.62162491 133.40843181 313.55175841 156.8992762 C418.36800841 209.3486512 523.18425841 261.7980262 631.17675841 315.8367762 C631.17675841 580.4967762 631.17675841 845.1567762 631.17675841 1117.8367762 C526.03050841 1170.4924012 420.88425841 1223.1480262 312.55175841 1277.3992762 C279.29829649 1294.06242317 246.04483458 1310.72557014 211.783692 1327.89366096 C171.31274474 1348.147201 171.31274474 1348.147201 152.39273131 1357.61056465 C138.24128863 1364.69027475 124.09521326 1371.78059806 109.9516465 1378.87602586 C95.5420204 1386.10460352 81.12647895 1393.32127342 66.70510385 1400.52638328 C58.12174409 1404.81518466 49.54286904 1409.11266961 40.97039441 1413.42318858 C35.31729566 1416.26466858 29.65852831 1419.09462022 23.99489713 1421.9150482 C20.76433655 1423.52425054 17.53659012 1425.1385304 14.31562793 1426.76687175 C10.84524353 1428.52115692 7.36289895 1430.25072292 3.87892783 1431.9778828 C2.87107366 1432.49231798 1.8632195 1433.00675317 0.8248243 1433.53677729 C-5.82280536 1436.79619604 -5.82280536 1436.79619604 -9.82519376 1436.95854276 C-14.54231779 1435.1935569 -19.00125511 1433.01736197 -23.49417627 1430.74740452 C-24.57529846 1430.20915091 -25.65642065 1429.6708973 -26.77030412 1429.11633298 C-29.77646835 1427.61763905 -32.77887514 1426.11183773 -35.77992983 1424.60296357 C-39.03584569 1422.96814817 -42.29638975 1421.34261152 -45.55636537 1419.71591133 C-51.27724714 1416.85963019 -56.99511612 1413.99739004 -62.71108258 1411.13128597 C-71.32097719 1406.81414643 -79.93551314 1402.50632996 -88.55095771 1398.200279 C-102.98802943 1390.98422883 -117.42145734 1383.76092013 -131.85269105 1376.53320259 C-151.36571981 1366.76035525 -170.88371298 1356.99748653 -190.40258729 1347.23631233 C-237.33883193 1323.75768077 -284.26810809 1300.26512059 -331.19824159 1276.7742762 C-436.01449159 1224.3249012 -540.83074159 1171.8755262 -648.82324159 1117.8367762 C-648.82324159 853.1767762 -648.82324159 588.5167762 -648.82324159 315.8367762 C-543.67699159 263.1811512 -438.53074159 210.5255262 -330.19824159 156.2742762 C-296.94477968 139.61112922 -263.69131776 122.94798225 -229.43017519 105.77989143 C-188.95922792 85.52635139 -188.95922792 85.52635139 -170.03921449 76.06298774 C-155.88777181 68.98327765 -141.74169644 61.89295433 -127.59812969 54.79752653 C-113.18850358 47.56894888 -98.77296213 40.35227897 -84.35158703 33.14716912 C-75.76822727 28.85836773 -67.18935222 24.56088278 -58.61687759 20.25036382 C-52.96377884 17.40888382 -47.3050115 14.57893217 -41.64138031 11.7585042 C-38.41081973 10.14930185 -35.1830733 8.53502199 -31.96211112 6.90668064 C-28.49172672 5.15239548 -25.00938213 3.42282947 -21.52541101 1.69566959 C-20.51755684 1.18123441 -19.50970268 0.66679923 -18.47130748 0.1367751 C-11.01384786 -3.51971375 -7.52790963 -3.47188703 0 0 Z " fill="#FF6B00" transform="translate(808.8232415914536,83.16322380304337)"/>
<path d="M0 0 C13.25337875 12.77242766 22.07847266 31.92267909 22.62939453 50.31591797 C22.98156978 75.56935076 15.80067901 94.1724962 -0.57373047 113.37451172 C-1.476548 114.4405169 -2.37887829 115.50693488 -3.28076172 116.57373047 C-4.68130215 118.22963028 -6.08254888 119.88489358 -7.48657227 121.5378418 C-10.38597635 124.95411157 -13.24499562 128.39920891 -16.07373047 131.87451172 C-19.82160845 136.47904752 -23.64356491 141.01470363 -27.48779297 145.53857422 C-30.3861787 148.95510712 -33.24528147 152.39956009 -36.07373047 155.87451172 C-39.82160845 160.47904752 -43.64356491 165.01470363 -47.48779297 169.53857422 C-50.3861787 172.95510712 -53.24528147 176.39956009 -56.07373047 179.87451172 C-59.82160845 184.47904752 -63.64356491 189.01470363 -67.48779297 193.53857422 C-70.3861787 196.95510712 -73.24528147 200.39956009 -76.07373047 203.87451172 C-79.82160845 208.47904752 -83.64356491 213.01470363 -87.48779297 217.53857422 C-90.3861787 220.95510712 -93.24528147 224.39956009 -96.07373047 227.87451172 C-99.82160845 232.47904752 -103.64356491 237.01470363 -107.48779297 241.53857422 C-110.3861787 244.95510712 -113.24528147 248.39956009 -116.07373047 251.87451172 C-119.82160845 256.47904752 -123.64356491 261.01470363 -127.48779297 265.53857422 C-130.3861787 268.95510712 -133.24528147 272.39956009 -136.07373047 275.87451172 C-139.82160845 280.47904752 -143.64356491 285.01470363 -147.48779297 289.53857422 C-150.3861787 292.95510712 -153.24528147 296.39956009 -156.07373047 299.87451172 C-159.82160845 304.47904752 -163.64356491 309.01470363 -167.48779297 313.53857422 C-170.3861787 316.95510712 -173.24528147 320.39956009 -176.07373047 323.87451172 C-179.82160845 328.47904752 -183.64356491 333.01470363 -187.48779297 337.53857422 C-190.3861787 340.95510712 -193.24528147 344.39956009 -196.07373047 347.87451172 C-199.82160845 352.47904752 -203.64356491 357.01470363 -207.48779297 361.53857422 C-210.3861787 364.95510712 -213.24528147 368.39956009 -216.07373047 371.87451172 C-219.82160845 376.47904752 -223.64356491 381.01470363 -227.48779297 385.53857422 C-230.3861787 388.95510712 -233.24528147 392.39956009 -236.07373047 395.87451172 C-239.82160845 400.47904752 -243.64356491 405.01470363 -247.48779297 409.53857422 C-250.3861787 412.95510712 -253.24528147 416.39956009 -256.07373047 419.87451172 C-259.82160845 424.47904752 -263.64356491 429.01470363 -267.48779297 433.53857422 C-270.3861787 436.95510712 -273.24528147 440.39956009 -276.07373047 443.87451172 C-279.82160845 448.47904752 -283.64356491 453.01470363 -287.48779297 457.53857422 C-290.3861787 460.95510712 -293.24528147 464.39956009 -296.07373047 467.87451172 C-299.82160845 472.47904752 -303.64356491 477.01470363 -307.48779297 481.53857422 C-310.3861787 484.95510712 -313.24528147 488.39956009 -316.07373047 491.87451172 C-319.82160845 496.47904752 -323.64356491 501.01470363 -327.48779297 505.53857422 C-330.3861787 508.95510712 -333.24528147 512.39956009 -336.07373047 515.87451172 C-339.82160845 520.47904752 -343.64356491 525.01470363 -347.48779297 529.53857422 C-350.3861787 532.95510712 -353.24528147 536.39956009 -356.07373047 539.87451172 C-359.82160845 544.47904752 -363.64356491 549.01470363 -367.48779297 553.53857422 C-370.3861787 556.95510712 -373.24528147 560.39956009 -376.07373047 563.87451172 C-379.82074763 568.47798994 -383.63424093 573.01953939 -387.48999023 577.53198242 C-390.42369385 580.97518365 -393.22865996 584.49448461 -396.01123047 588.06201172 C-408.81446354 603.62495227 -427.53338967 613.77534025 -447.57373047 616.37451172 C-469.06299311 617.6478203 -490.42381473 614.3670928 -507.07756138 599.62179852 C-507.90129718 598.88019387 -508.72503298 598.13858923 -509.57373047 597.37451172 C-510.32805579 596.70661778 -511.08238111 596.03872385 -511.85956478 595.35059071 C-522.47660456 585.79619263 -532.49038105 575.61503202 -542.588328 565.51995695 C-545.4270931 562.68306314 -548.26869763 559.84901558 -551.10987854 557.01454163 C-557.30253737 550.83537857 -563.49149539 544.65251798 -569.67961812 538.4688127 C-573.55072375 534.60048229 -577.42256085 530.73288458 -581.29452324 526.86541176 C-592.03772699 516.13438523 -602.77999411 505.40242304 -613.51880741 494.66700268 C-614.20403981 493.98198984 -614.88927221 493.29697701 -615.59526923 492.59120621 C-616.2820198 491.90467391 -616.96877038 491.21814162 -617.67633158 490.51080531 C-619.06766676 489.11991357 -620.45900351 487.72902339 -621.8503418 486.33813477 C-622.88554043 485.30326827 -622.88554043 485.30326827 -623.94165217 484.24749539 C-635.12801599 473.06508094 -646.32112148 461.88944069 -657.51714129 450.71669479 C-669.04144839 439.21614908 -680.56007489 427.70993908 -692.07308954 416.19808847 C-698.52560131 409.74649034 -704.98047216 403.29729382 -711.44163704 396.85436058 C-716.94115641 391.37030643 -722.43542444 385.88105665 -727.92310483 380.38515469 C-730.71768091 377.58669584 -733.51453681 374.79062879 -736.31812286 372.001194 C-758.13054896 350.29220309 -777.72312792 329.53575822 -777.82373047 296.87451172 C-777.76514218 276.84280916 -772.09066472 259.40232086 -758.57373047 244.37451172 C-757.79900391 243.40642578 -757.02427734 242.43833984 -756.22607422 241.44091797 C-745.03235104 227.99869251 -726.94226165 218.5193617 -709.65771484 216.55322266 C-686.30458298 214.55058764 -664.84410553 219.20802518 -646.57373047 234.37451172 C-636.14897834 243.62011481 -626.32971541 253.48150218 -616.49243164 263.34228516 C-614.81587367 265.01912582 -613.13909425 266.69574509 -611.46211243 268.37216187 C-606.94838864 272.88560085 -602.43773652 277.40209798 -597.92766356 281.91918468 C-593.67983834 286.17265817 -589.42967814 290.42379625 -585.17954091 294.67495921 C-576.7714589 303.08522011 -568.36560405 311.49770325 -559.96118164 319.91162109 C-551.80579047 328.07621665 -543.64933075 336.23974233 -535.49145508 344.40185547 C-534.73489431 345.15881032 -534.73489431 345.15881032 -533.96304949 345.93105718 C-531.43229292 348.46311897 -528.90151557 350.99515998 -526.3707279 353.52719069 C-505.4351747 374.47308022 -484.5032867 395.42262985 -463.57373047 416.37451172 C-460.05161672 413.62029857 -457.22578311 410.94792427 -454.44873047 407.43701172 C-453.28470703 405.98488281 -453.28470703 405.98488281 -452.09716797 404.50341797 C-451.68821289 403.99311035 -451.27925781 403.48280273 -450.85791016 402.95703125 C-448.64108223 400.22519121 -446.35519173 397.55238582 -444.07373047 394.87451172 C-440.70039351 390.9059143 -437.36195136 386.91432596 -434.07373047 382.87451172 C-430.32585249 378.26997591 -426.50389603 373.7343198 -422.65966797 369.21044922 C-419.76128224 365.79391632 -416.90217947 362.34946334 -414.07373047 358.87451172 C-410.32585249 354.26997591 -406.50389603 349.7343198 -402.65966797 345.21044922 C-399.76128224 341.79391632 -396.90217947 338.34946334 -394.07373047 334.87451172 C-390.32585249 330.26997591 -386.50389603 325.7343198 -382.65966797 321.21044922 C-379.76128224 317.79391632 -376.90217947 314.34946334 -374.07373047 310.87451172 C-370.32585249 306.26997591 -366.50389603 301.7343198 -362.65966797 297.21044922 C-359.76128224 293.79391632 -356.90217947 290.34946334 -354.07373047 286.87451172 C-350.32585249 282.26997591 -346.50389603 277.7343198 -342.65966797 273.21044922 C-339.76128224 269.79391632 -336.90217947 266.34946334 -334.07373047 262.87451172 C-330.32585249 258.26997591 -326.50389603 253.7343198 -322.65966797 249.21044922 C-319.76128224 245.79391632 -316.90217947 242.34946334 -314.07373047 238.87451172 C-310.32585249 234.26997591 -306.50389603 229.7343198 -302.65966797 225.21044922 C-299.76128224 221.79391632 -296.90217947 218.34946334 -294.07373047 214.87451172 C-290.32585249 210.26997591 -286.50389603 205.7343198 -282.65966797 201.21044922 C-279.76128224 197.79391632 -276.90217947 194.34946334 -274.07373047 190.87451172 C-270.32585249 186.26997591 -266.50389603 181.7343198 -262.65966797 177.21044922 C-259.76128224 173.79391632 -256.90217947 170.34946334 -254.07373047 166.87451172 C-250.32585249 162.26997591 -246.50389603 157.7343198 -242.65966797 153.21044922 C-239.76128224 149.79391632 -236.90217947 146.34946334 -234.07373047 142.87451172 C-230.32585249 138.26997591 -226.50389603 133.7343198 -222.65966797 129.21044922 C-219.76128224 125.79391632 -216.90217947 122.34946334 -214.07373047 118.87451172 C-210.32585249 114.26997591 -206.50389603 109.7343198 -202.65966797 105.21044922 C-199.76128224 101.79391632 -196.90217947 98.34946334 -194.07373047 94.87451172 C-190.32585249 90.26997591 -186.50389603 85.7343198 -182.65966797 81.21044922 C-179.76128224 77.79391632 -176.90217947 74.34946334 -174.07373047 70.87451172 C-170.32585249 66.26997591 -166.50389603 61.7343198 -162.65966797 57.21044922 C-159.76128224 53.79391632 -156.90217947 50.34946334 -154.07373047 46.87451172 C-150.32585249 42.26997591 -146.50389603 37.7343198 -142.65966797 33.21044922 C-139.76128224 29.79391632 -136.90217947 26.34946334 -134.07373047 22.87451172 C-129.80392361 17.63115824 -125.45315757 12.4610449 -121.06591797 7.31591797 C-119.65626169 5.65217004 -118.25705055 3.97903005 -116.89404297 2.27685547 C-105.73345151 -11.56353902 -87.32209447 -21.18038028 -69.76123047 -23.37548828 C-42.6400518 -25.18356686 -20.19932988 -18.73237507 0 0 Z " fill="#FFFEFE" transform="translate(1177.57373046875,503.62548828125)"/>
<path d="M0 0 C8.73911963 7.95403516 14.70487217 17.02523155 18.9675293 28.01757812 C19.28850586 28.82195312 19.60948242 29.62632812 19.94018555 30.45507812 C25.58040087 47.24455628 21.90657621 64.48504387 14.54956055 80.00976562 C6.68030995 94.16119106 -6.02299408 104.31613665 -21.0324707 110.01757812 C-21.83555664 110.33726562 -22.63864258 110.65695312 -23.46606445 110.98632812 C-39.68111457 116.45036997 -57.68571635 113.32578796 -72.6574707 105.95507812 C-88.79681576 96.74384216 -99.13720888 82.44062726 -104.8449707 64.89257812 C-108.97406321 48.54043337 -105.53918725 30.45952237 -97.3449707 15.95507812 C-88.00232267 1.21705085 -73.96740778 -9.46643865 -57.0324707 -13.98242188 C-36.76488303 -17.60163396 -15.83675665 -13.52254438 0 0 Z " fill="#FFE1CA" transform="translate(1242.032470703125,350.982421875)"/>
</svg>
