<svg xmlns="http://www.w3.org/2000/svg" viewBox="0 0 100 100" width="100%" height="100%">
  <defs>
    <mask id="gap-mask">
      <rect x="0" y="0" width="100%" height="100%" fill="#ffffff" />
      <line x1="25" y1="25" x2="75" y2="75" stroke="#000000" stroke-width="14" stroke-linecap="round" />
    </mask>
  </defs>

  <g fill="#1A1A1A" stroke="#1A1A1A">
    
    <line x1="25" y1="25" x2="75" y2="75" stroke-width="8" stroke-linecap="round" />
    
    <g mask="url(#gap-mask)" stroke="none">
      <circle cx="30" cy="42" r="5.5" />
      <circle cx="41.5" cy="32" r="6.5" />
      <circle cx="58.5" cy="32" r="6.5" />
      <circle cx="70" cy="42" r="5.5" />
      
      <path d="M50,50 C42,50 35,55 35,62 C35,68 40,71 45,70 C48,69 49,67 50,67 C51,67 52,69 55,70 C60,71 65,68 65,62 C65,55 58,50 50,50 Z" />
    </g>
    
  </g>
</svg>
